<svg width="18" height="16" viewBox="0 0 18 16" fill="none" xmlns="http://www.w3.org/2000/svg">
<g clip-path="url(#clip0_10365_761)">
<path d="M17.625 6.78125L12.9 10.5625C12.545 10.8459 12.1042 11.0002 11.65 11H0.5C0.367392 11 0.240215 10.9473 0.146447 10.8536C0.0526784 10.7598 0 10.6326 0 10.5V7.5C0 7.36739 0.0526784 7.24022 0.146447 7.14645C0.240215 7.05268 0.367392 7 0.5 7H2.23125L3.68438 5.82188C4.3392 5.29055 5.15673 5.00039 6 5H11C11.1458 4.99973 11.2898 5.03133 11.4221 5.09259C11.5543 5.15384 11.6716 5.24327 11.7657 5.35461C11.8598 5.46595 11.9284 5.5965 11.9667 5.73714C12.005 5.87777 12.0121 6.02508 11.9875 6.16875C11.9062 6.65938 11.4437 7 10.9469 7H8.5C8.36739 7 8.24021 7.05268 8.14645 7.14645C8.05268 7.24022 8 7.36739 8 7.5C8 7.63261 8.05268 7.75979 8.14645 7.85356C8.24021 7.94732 8.36739 8 8.5 8H12.1969C12.6513 8.00118 13.0924 7.84679 13.4469 7.5625L16.3344 5.25313C16.7219 4.94063 17.2969 4.91875 17.6656 5.25313C17.7744 5.34992 17.8606 5.46929 17.9185 5.60289C17.9763 5.73649 18.0042 5.8811 18.0004 6.02663C17.9965 6.17215 17.9609 6.31508 17.8961 6.44542C17.8312 6.57576 17.7387 6.69037 17.625 6.78125Z" fill="#213F7D"/>
</g>
<defs>
<clipPath id="clip0_10365_761">
<rect width="18" height="16" fill="white"/>
</clipPath>
</defs>
</svg>
