<svg width="16" height="14" viewBox="0 0 16 14" fill="none" xmlns="http://www.w3.org/2000/svg">
<path d="M9.77415 5.6696L9.77976 5.66579L9.75994 5.59624C9.71637 5.4433 9.56412 5.32759 9.39902 5.34765C9.36778 5.34933 9.29252 5.35924 9.19023 5.38422C9.0741 5.41259 8.91767 5.46167 8.74087 5.54487C8.40555 5.70267 7.9972 5.98314 7.65272 6.47622C7.38773 6.30782 6.97337 6.15784 6.42665 6.2939C6.29067 6.31876 6.17495 6.43283 6.17132 6.59216C6.08104 7.23011 6.30852 7.84738 6.61311 8.35899C6.91339 8.86335 7.29499 9.27581 7.54673 9.52092C7.56261 9.55814 7.58055 9.59394 7.59555 9.62388L7.59581 9.62439C7.61109 9.65489 7.62183 9.6766 7.62833 9.69219C7.63652 9.86302 7.64834 10.0075 7.66019 10.1146C7.66629 10.1697 7.67248 10.2156 7.67833 10.2505C7.68124 10.2679 7.68423 10.2835 7.68728 10.2966C7.68877 10.3031 7.69099 10.3121 7.69424 10.3217C7.72466 10.4852 7.88332 10.5873 8.03123 10.5873H8.07935V10.5881L8.09194 10.5865C8.27329 10.5635 8.4135 10.3849 8.36936 10.1958L8.36865 10.1913L8.36499 10.1666C8.36186 10.1447 8.35748 10.112 8.35259 10.0699C8.34373 9.9937 8.33319 9.88657 8.32534 9.75584C8.56217 9.49717 9.20018 8.75679 9.52878 8.10027L9.52879 8.10028L9.5295 8.0988C9.81895 7.49601 9.87602 6.88277 9.86173 6.41677C9.85457 6.18341 9.82949 5.98591 9.80619 5.84363C9.79454 5.77245 9.78333 5.71513 9.7751 5.67433L9.77415 5.6696ZM6.98193 7.07855C6.92097 7.12214 6.8807 7.17844 6.85884 7.23966C6.83699 7.13848 6.82353 7.03683 6.82021 6.9354C6.98566 6.93501 7.11772 6.97419 7.21929 7.02463C7.14084 7.01588 7.05976 7.03343 6.99043 7.0731L6.99018 7.07265L6.98193 7.07855ZM8.89417 7.78795C8.75741 8.0572 8.55621 8.35207 8.35435 8.6132C8.44364 8.0776 8.62876 7.48304 9.0089 6.96328L9.00891 6.96329L9.00953 6.96241C9.11815 6.81052 9.09978 6.60217 8.93823 6.48665C8.82315 6.40436 8.67566 6.39495 8.56069 6.46549C8.77006 6.28693 8.97687 6.18318 9.13941 6.12276C9.20062 6.494 9.20823 7.15929 8.90248 7.7713L8.89417 7.78795ZM8.00887 7.17268C8.1477 6.90645 8.30813 6.7028 8.47062 6.54698C8.4681 6.55025 8.46561 6.55358 8.46317 6.55697C8.17372 6.94341 7.97572 7.36361 7.84149 7.77622C7.86217 7.57284 7.91479 7.36895 8.00887 7.17268Z" fill="#213F7D" stroke="#213F7D" stroke-width="0.2"/>
<path d="M4.46006 10.84C4.46006 11.0233 4.61671 11.18 4.80006 11.18C4.98341 11.18 5.14006 11.0233 5.14006 10.84V4.75996C5.14006 4.57661 4.98341 4.41996 4.80006 4.41996C4.61671 4.41996 4.46006 4.57661 4.46006 4.75996V10.84Z" fill="#213F7D" stroke="#213F7D" stroke-width="0.2"/>
<path d="M2.86008 10.84C2.86008 11.0233 3.01673 11.18 3.20008 11.18C3.38344 11.18 3.54008 11.0233 3.54008 10.84V4.75996C3.54008 4.57661 3.38344 4.41996 3.20008 4.41996C3.01673 4.41996 2.86008 4.57661 2.86008 4.75996V10.84Z" fill="#213F7D" stroke="#213F7D" stroke-width="0.2"/>
<path d="M10.8601 10.84C10.8601 11.0233 11.0167 11.18 11.2001 11.18C11.3834 11.18 11.5401 11.0233 11.5401 10.84V4.75996C11.5401 4.57661 11.3834 4.41996 11.2001 4.41996C11.0167 4.41996 10.8601 4.57661 10.8601 4.75996V10.84Z" fill="#213F7D" stroke="#213F7D" stroke-width="0.2"/>
<path d="M12.4601 10.84C12.4601 11.0233 12.6167 11.18 12.8001 11.18C12.9834 11.18 13.1401 11.0233 13.1401 10.84V4.75996C13.1401 4.57661 12.9834 4.41996 12.8001 4.41996C12.6167 4.41996 12.4601 4.57661 12.4601 4.75996V10.84Z" fill="#213F7D" stroke="#213F7D" stroke-width="0.2"/>
<path d="M13.5818 4.29997H13.36H2.64004C2.48648 4.29997 2.34567 4.19237 2.31862 4.04569C2.27553 3.88563 2.35048 3.75011 2.4727 3.66863L2.47684 3.66587L2.47691 3.66598L7.83662 0.46615C7.83666 0.466125 7.83671 0.466099 7.83675 0.466073L7.83691 0.465979L7.88817 0.551841C7.96817 0.503716 8.06442 0.503716 8.12817 0.551841L13.5818 4.29997ZM13.5818 4.29997L13.5366 4.24878C13.6335 4.18881 13.7013 4.08325 13.7149 3.97131L13.7156 3.9714V3.95926C13.7156 3.82907 13.6337 3.69696 13.517 3.64602L8.18352 0.468415L13.5818 4.29997ZM12.119 3.61997H3.86586L7.99994 1.14837L12.119 3.61997Z" fill="#213F7D" stroke="#213F7D" stroke-width="0.2"/>
<path d="M2.64002 11.98H13.36C13.5434 11.98 13.7 11.8233 13.7 11.64C13.7 11.4566 13.5434 11.3 13.36 11.3H2.64002C2.45667 11.3 2.30002 11.4566 2.30002 11.64C2.30002 11.8233 2.45667 11.98 2.64002 11.98Z" fill="#213F7D" stroke="#213F7D" stroke-width="0.2"/>
<path d="M1.8401 12.78H14.1601C14.3435 12.78 14.5001 12.6233 14.5001 12.44C14.5001 12.2566 14.3435 12.1 14.1601 12.1H1.8401C1.65674 12.1 1.5001 12.2566 1.5001 12.44C1.5001 12.6233 1.65674 12.78 1.8401 12.78Z" fill="#213F7D" stroke="#213F7D" stroke-width="0.2"/>
<path d="M1.04005 13.5799H14.96C15.1434 13.5799 15.3 13.4233 15.3 13.2399C15.3 13.0566 15.1434 12.8999 14.96 12.8999H1.04005C0.856696 12.8999 0.700049 13.0566 0.700049 13.2399C0.700049 13.4233 0.856696 13.5799 1.04005 13.5799Z" fill="#213F7D" stroke="#213F7D" stroke-width="0.2"/>
</svg>
